<?xml version="1.0" encoding="us-ascii" standalone="no"?><svg xmlns="http://www.w3.org/2000/svg" xmlns:xlink="http://www.w3.org/1999/xlink" contentStyleType="text/css" height="494px" preserveAspectRatio="none" style="width:1033px;height:494px;background:#FFFFFF;" version="1.1" viewBox="0 0 1033 494" width="1033px" zoomAndPan="magnify"><defs/><g><path d="M19.5,201 L406,201 A12.5,12.5 0 0 1 418.5,213.5 L418.5,246.2656 L7,246.2656 L7,213.5 A12.5,12.5 0 0 1 19.5,201 " fill="#F1F1F1" style="stroke:#F1F1F1;stroke-width:1.0;"/><rect fill="none" height="287.4688" rx="12.5" ry="12.5" style="stroke:#181818;stroke-width:0.5;" width="411.5" x="7" y="201"/><line style="stroke:#181818;stroke-width:0.5;" x1="7" x2="418.5" y1="246.2656" y2="246.2656"/><line style="stroke:#181818;stroke-width:0.5;" x1="7" x2="418.5" y1="227.2969" y2="227.2969"/><text fill="#000000" font-family="sans-serif" font-size="14" lengthAdjust="spacing" textLength="202" x="111.75" y="218.9951">Central knowledge repository</text><text fill="#000000" font-family="sans-serif" font-size="12" lengthAdjust="spacing" textLength="215" x="12" y="238.4355">As GitHub repository and websites</text><g id="ckr.sd"><rect fill="#F1F1F1" height="92.1719" rx="12.5" ry="12.5" style="stroke:#181818;stroke-width:0.5;" width="176" x="19" y="265.2656"/><line style="stroke:#181818;stroke-width:0.5;" x1="19" x2="195" y1="291.5625" y2="291.5625"/><text fill="#000000" font-family="sans-serif" font-size="14" lengthAdjust="spacing" textLength="77" x="68.5" y="283.2607">Study docs</text><text fill="#000000" font-family="sans-serif" font-size="12" lengthAdjust="spacing" textLength="99" x="24" y="307.7012">- Study protocol</text><text fill="#000000" font-family="sans-serif" font-size="12" lengthAdjust="spacing" textLength="156" x="24" y="321.6699">- Data management plan</text><text fill="#000000" font-family="sans-serif" font-size="12" lengthAdjust="spacing" textLength="89" x="24" y="335.6387">- Analysis plan</text><text fill="#000000" font-family="sans-serif" font-size="12" lengthAdjust="spacing" textLength="130" x="24" y="349.6074">- Repository for code</text></g><g id="ckr.od"><rect fill="#F1F1F1" height="106.1406" rx="12.5" ry="12.5" style="stroke:#181818;stroke-width:0.5;" width="191" x="213.5" y="258.2656"/><line style="stroke:#181818;stroke-width:0.5;" x1="213.5" x2="404.5" y1="284.5625" y2="284.5625"/><text fill="#000000" font-family="sans-serif" font-size="14" lengthAdjust="spacing" textLength="114" x="252" y="276.2607">Operations docs</text><text fill="#000000" font-family="sans-serif" font-size="12" lengthAdjust="spacing" textLength="151" x="218.5" y="300.7012">- Documented decisions</text><text fill="#000000" font-family="sans-serif" font-size="12" lengthAdjust="spacing" textLength="146" x="218.5" y="314.6699">- Operating procedures</text><text fill="#000000" font-family="sans-serif" font-size="12" lengthAdjust="spacing" textLength="171" x="218.5" y="328.6387">- Collaboration agreements</text><text fill="#000000" font-family="sans-serif" font-size="12" lengthAdjust="spacing" textLength="159" x="218.5" y="342.6074">- Workflows when working</text><text fill="#000000" font-family="sans-serif" font-size="12" lengthAdjust="spacing" textLength="85" x="226.5" y="356.5762">with registers</text></g><g id="ckr.share"><rect fill="#F1F1F1" height="78.2031" rx="12.5" ry="12.5" style="stroke:#181818;stroke-width:0.5;" width="199" x="108.5" y="400.2656"/><line style="stroke:#181818;stroke-width:0.5;" x1="108.5" x2="307.5" y1="426.5625" y2="426.5625"/><text fill="#000000" font-family="sans-serif" font-size="14" lengthAdjust="spacing" textLength="106" x="155" y="418.2607">Internal sharing</text><text fill="#000000" font-family="sans-serif" font-size="12" lengthAdjust="spacing" textLength="111" x="113.5" y="442.7012">- Lessons learned</text><text fill="#000000" font-family="sans-serif" font-size="12" lengthAdjust="spacing" textLength="158" x="113.5" y="456.6699">- Challenges and barriers</text><text fill="#000000" font-family="sans-serif" font-size="12" lengthAdjust="spacing" textLength="179" x="113.5" y="470.6387">- Benefits and improvements</text></g><!--link sd to share--><!--link od to share--><path d="M467,223 L707,223 A12.5,12.5 0 0 1 719.5,235.5 L719.5,249.2969 L454.5,249.2969 L454.5,235.5 A12.5,12.5 0 0 1 467,223 " fill="#F1F1F1" style="stroke:#F1F1F1;stroke-width:1.0;"/><rect fill="none" height="243.4688" rx="12.5" ry="12.5" style="stroke:#181818;stroke-width:0.5;" width="265" x="454.5" y="223"/><line style="stroke:#181818;stroke-width:0.5;" x1="454.5" x2="719.5" y1="249.2969" y2="249.2969"/><text fill="#000000" font-family="sans-serif" font-size="14" lengthAdjust="spacing" textLength="119" x="527.5" y="240.9951">Data engineering</text><g id="de.dc"><rect fill="#F1F1F1" height="66.5625" rx="12.5" ry="12.5" style="stroke:#181818;stroke-width:0.5;" width="126" x="525.5" y="261.2969"/><line style="stroke:#181818;stroke-width:0.5;" x1="525.5" x2="651.5" y1="303.8906" y2="303.8906"/><text fill="#000000" font-family="sans-serif" font-size="14" lengthAdjust="spacing" textLength="106" x="535.5" y="279.292">Data collection,</text><text fill="#000000" font-family="sans-serif" font-size="14" lengthAdjust="spacing" textLength="75" x="551" y="295.5889">generation</text><text fill="#000000" font-family="sans-serif" font-size="12" lengthAdjust="spacing" textLength="70" x="530.5" y="320.0293">- From WP3</text></g><g id="de.dep"><rect fill="#F1F1F1" height="92.1719" rx="12.5" ry="12.5" style="stroke:#181818;stroke-width:0.5;" width="244" x="466.5" y="364.2969"/><line style="stroke:#181818;stroke-width:0.5;" x1="466.5" x2="710.5" y1="390.5938" y2="390.5938"/><text fill="#000000" font-family="sans-serif" font-size="14" lengthAdjust="spacing" textLength="185" x="496" y="382.292">Data engineering pipelines</text><text fill="#000000" font-family="sans-serif" font-size="12" lengthAdjust="spacing" textLength="182" x="471.5" y="406.7324">- Automated data operations</text><text fill="#000000" font-family="sans-serif" font-size="12" lengthAdjust="spacing" textLength="203" x="479.5" y="420.7012">pipeline (from raw to analyzable)</text><text fill="#000000" font-family="sans-serif" font-size="12" lengthAdjust="spacing" textLength="172" x="471.5" y="434.6699">- Rapid, automated internal</text><text fill="#000000" font-family="sans-serif" font-size="12" lengthAdjust="spacing" textLength="216" x="479.5" y="448.6387">dissemination of research outputs</text></g><!--link dc to dep--><g id="link_dc_dep"><path d="M588.5,328.3169 C588.5,337.8869 588.5,348.5969 588.5,358.9969 " fill="none" id="dc-to-dep" style="stroke:#181818;stroke-width:1.0;"/><polygon fill="#181818" points="588.5,364.0769,592.5,355.0769,588.5,359.0769,584.5,355.0769,588.5,364.0769" style="stroke:#181818;stroke-width:1.0;"/></g><path d="M767,288 L1007,288 A12.5,12.5 0 0 1 1019.5,300.5 L1019.5,314.2969 L754.5,314.2969 L754.5,300.5 A12.5,12.5 0 0 1 767,288 " fill="#F1F1F1" style="stroke:#F1F1F1;stroke-width:1.0;"/><rect fill="none" height="112.5313" rx="12.5" ry="12.5" style="stroke:#181818;stroke-width:0.5;" width="265" x="754.5" y="288"/><line style="stroke:#181818;stroke-width:0.5;" x1="754.5" x2="1019.5" y1="314.2969" y2="314.2969"/><text fill="#000000" font-family="sans-serif" font-size="14" lengthAdjust="spacing" textLength="90" x="842" y="305.9951">Data science</text><g id="ds.rap"><rect fill="#F1F1F1" height="64.2344" rx="12.5" ry="12.5" style="stroke:#181818;stroke-width:0.5;" width="244" x="766.5" y="326.2969"/><line style="stroke:#181818;stroke-width:0.5;" x1="766.5" x2="1010.5" y1="352.5938" y2="352.5938"/><text fill="#000000" font-family="sans-serif" font-size="14" lengthAdjust="spacing" textLength="216" x="780.5" y="344.292">Reproducible analysis pipelines</text><text fill="#000000" font-family="sans-serif" font-size="12" lengthAdjust="spacing" textLength="172" x="771.5" y="368.7324">- Rapid, automated internal</text><text fill="#000000" font-family="sans-serif" font-size="12" lengthAdjust="spacing" textLength="216" x="779.5" y="382.7012">dissemination of research outputs</text></g><g id="pm"><rect fill="#F1F1F1" height="120.1094" rx="12.5" ry="12.5" style="stroke:#181818;stroke-width:0.5;" width="239" x="484.5" y="14"/><line style="stroke:#181818;stroke-width:0.5;" x1="484.5" x2="723.5" y1="40.2969" y2="40.2969"/><text fill="#000000" font-family="sans-serif" font-size="14" lengthAdjust="spacing" textLength="144" x="532" y="31.9951">Project management</text><text fill="#000000" font-family="sans-serif" font-size="12" lengthAdjust="spacing" textLength="180" x="489.5" y="56.4355">- Central task tracking board</text><text fill="#000000" font-family="sans-serif" font-size="12" lengthAdjust="spacing" textLength="138" x="497.5" y="70.4043">(Kanban-style boards)</text><text fill="#000000" font-family="sans-serif" font-size="12" lengthAdjust="spacing" textLength="165" x="489.5" y="84.373">- Iterative and incremental</text><text fill="#000000" font-family="sans-serif" font-size="12" lengthAdjust="spacing" textLength="211" x="497.5" y="98.3418">methods (software agile-inspired)</text><text fill="#000000" font-family="sans-serif" font-size="12" lengthAdjust="spacing" textLength="206" x="489.5" y="112.3105">- Central communication channel</text><text fill="#000000" font-family="sans-serif" font-size="12" lengthAdjust="spacing" textLength="139" x="497.5" y="126.2793">(Slack/Teams/Discord)</text></g><g id="edu"><rect fill="#F1F1F1" height="134.0781" rx="12.5" ry="12.5" style="stroke:#181818;stroke-width:0.5;" width="221" x="758.5" y="7"/><line style="stroke:#181818;stroke-width:0.5;" x1="758.5" x2="979.5" y1="33.2969" y2="33.2969"/><text fill="#000000" font-family="sans-serif" font-size="14" lengthAdjust="spacing" textLength="167" x="785.5" y="24.9951">Education and upskilling</text><text fill="#000000" font-family="sans-serif" font-size="12" lengthAdjust="spacing" textLength="151" x="763.5" y="49.4355">- Basic practices in data</text><text fill="#000000" font-family="sans-serif" font-size="12" lengthAdjust="spacing" textLength="75" x="771.5" y="63.4043">engineering</text><text fill="#000000" font-family="sans-serif" font-size="12" lengthAdjust="spacing" textLength="190" x="763.5" y="77.373">- Reproducible research within</text><text fill="#000000" font-family="sans-serif" font-size="12" lengthAdjust="spacing" textLength="193" x="771.5" y="91.3418">server environments (Denmark</text><text fill="#000000" font-family="sans-serif" font-size="12" lengthAdjust="spacing" textLength="63" x="771.5" y="105.3105">Statistics)</text><text fill="#000000" font-family="sans-serif" font-size="12" lengthAdjust="spacing" textLength="192" x="763.5" y="119.2793">- Iterative project development</text><text fill="#000000" font-family="sans-serif" font-size="12" lengthAdjust="spacing" textLength="58" x="771.5" y="133.248">practices</text></g><g id="collab"><rect fill="#F1F1F1" height="92.1719" rx="12.5" ry="12.5" style="stroke:#181818;stroke-width:0.5;" width="238" x="211" y="28"/><line style="stroke:#181818;stroke-width:0.5;" x1="211" x2="449" y1="54.2969" y2="54.2969"/><text fill="#000000" font-family="sans-serif" font-size="14" lengthAdjust="spacing" textLength="98" x="281" y="45.9951">Collaborations</text><text fill="#000000" font-family="sans-serif" font-size="12" lengthAdjust="spacing" textLength="195" x="216" y="70.4355">- NNF-funded Seedcase Project</text><text fill="#000000" font-family="sans-serif" font-size="12" lengthAdjust="spacing" textLength="144" x="224" y="84.4043">(software and training)</text><text fill="#000000" font-family="sans-serif" font-size="12" lengthAdjust="spacing" textLength="155" x="216" y="98.373">- SDCA training expertise</text><text fill="#000000" font-family="sans-serif" font-size="12" lengthAdjust="spacing" textLength="210" x="224" y="112.3418">(e.g. DDEA R courses instructors)</text></g><!--link ckr to de--><!--link de to ds--><g id="link_de_ds"><path d="M719.71,344.5 C729.55,344.5 739.38,344.5 749.21,344.5 " fill="none" id="de-to-ds" style="stroke:#181818;stroke-width:1.0;"/><polygon fill="#181818" points="754.35,344.5,745.35,340.5,749.35,344.5,745.35,348.5,754.35,344.5" style="stroke:#181818;stroke-width:1.0;"/></g><!--link pm to de--><g id="link_pm_de"><path d="M600.25,134.26 C598.69,158.93 596.81,188.58 594.97,217.69 " fill="none" id="pm-to-de" style="stroke:#181818;stroke-width:1.0;"/><polygon fill="#181818" points="594.65,222.74,599.2083,214.0095,594.9646,217.7499,591.2241,213.5062,594.65,222.74" style="stroke:#181818;stroke-width:1.0;"/></g><!--link pm to ds--><g id="link_pm_ds"><path d="M666.6,134.27 C688.84,155.33 714.04,179.22 737,201 C765.81,228.33 797.71,258.64 824.67,284.25 " fill="none" id="pm-to-ds" style="stroke:#181818;stroke-width:1.0;"/><polygon fill="#181818" points="828.61,287.99,824.8523,278.8862,824.9897,284.5414,819.3345,284.6787,828.61,287.99" style="stroke:#181818;stroke-width:1.0;"/></g><!--link collab to pm--><g id="link_collab_pm"><path d="M449.07,74 C459.12,74 469.17,74 479.22,74 " fill="none" id="collab-to-pm" style="stroke:#181818;stroke-width:1.0;"/><polygon fill="#181818" points="484.48,74,475.48,70,479.48,74,475.48,78,484.48,74" style="stroke:#181818;stroke-width:1.0;"/></g><!--link collab to ckr--><g id="link_collab_ckr"><path d="M310.28,120.24 C300.96,141.65 289.24,168.55 277.19,196.19 " fill="none" id="collab-to-ckr" style="stroke:#181818;stroke-width:1.0;"/><polygon fill="#181818" points="275.1,200.99,282.3644,194.3395,277.0988,196.4069,275.0315,191.1414,275.1,200.99" style="stroke:#181818;stroke-width:1.0;"/></g><!--link collab to de--><g id="link_collab_de"><path d="M373.31,120.24 C399.39,147.5 434,183.66 467.76,218.92 " fill="none" id="collab-to-de" style="stroke:#181818;stroke-width:1.0;"/><polygon fill="#181818" points="471.45,222.77,468.1196,213.5013,467.9939,219.1568,462.3384,219.0311,471.45,222.77" style="stroke:#181818;stroke-width:1.0;"/></g><!--reverse link pm to edu--><g id="link_pm_edu"><path d="M728.7,74 C738.54,74 748.38,74 758.22,74 " fill="none" id="pm-backto-edu" style="stroke:#181818;stroke-width:1.0;"/><polygon fill="#181818" points="723.56,74,732.56,78,728.56,74,732.56,70,723.56,74" style="stroke:#181818;stroke-width:1.0;"/></g><!--link edu to de--><g id="link_edu_de"><path d="M799.65,141.03 C774.76,164.73 745.81,192.29 717.43,219.31 " fill="none" id="edu-to-de" style="stroke:#181818;stroke-width:1.0;"/><polygon fill="#181818" points="713.61,222.95,722.892,219.657,717.2371,219.5085,717.3856,213.8536,713.61,222.95" style="stroke:#181818;stroke-width:1.0;"/></g><!--link edu to ds--><g id="link_edu_ds"><path d="M873.43,141.03 C876.33,184.3 880.09,240.45 882.92,282.64 " fill="none" id="edu-to-ds" style="stroke:#181818;stroke-width:1.0;"/><polygon fill="#181818" points="883.26,287.71,886.6331,278.4568,882.917,282.7218,878.652,279.0056,883.26,287.71" style="stroke:#181818;stroke-width:1.0;"/></g><!--SRC=[hLLBZnCn3BxFhx0uTIM6FN3ZWBHiUQn0WBP87823cxXjQ2Q9uapBWlZlECcyTk78eMqSlpv_jbDEc0WUNPDB4IqSdJzRqdk2IC6pIJxUFG9aKCS8lw21SdW6LmolJNhJRnTsW4x3cROY4MTJhh4tgTTteBtY4ebrLca9qa9LXUYJLzxEzsjC21qwt5Cdo21OTBFsog6zOyCFhczd93iVGNbDpOpYGw28oNZ7CnIVeVWXfLTzpaKQD2d3sNBM3jvkdy4gqdsaXVRQMujRN-C3xYCLs0kBppuUTzQV6Su7Sd0MKO9zTG1damv2ujvmefWzPiWtWYPAhS07Z69UwPCpPPlyMsA_8-PSbYMCZlGztVK1hIMtbuRaxcmnHbFJp3OloD7Ef6fXEYdmDC3_tJG3bD8GYMCSqGH54_oQqHOJwQ8bbMbu_5Moke7pQgx4MAkIyrNq7Np- -BHvuBz80S44iYBna2naTmfr1FhaEopDocv-QcwcT7I4rIwdYNY6vAKwcPgVkBLqiGXqYy7enu1JF3EGdWDfmqoTSRMlVYTzOY5P7S3tAVH_CyJAa5DK0VEI7HdEw7MlZEIlKCe0toinOYvHlly7iWMqZz5_bwOi5gga2rqJkZebm_Odv2F8IUNXXAt7g7EorLjqMtGjfpi1NwxvOlIzIONw4zNnSIgM31LcH-dWXOWL-rqwvu73lR7K6iV1HD8N3n4ettMzCwhMfGxe79L8guqLM9UV23k-N1jMFehtME5BONPOFW7H1puQQySnbMrjv5Dd7TaesM6K6LMo5CQL0SeP5gCtcT_hsaHnNbdZiWzJF54KrvE9tfMbWTMQN8VncFKRWIUBRPJmDSQS2Gj3NpIToFgGtSluZkYQgRvx3qmT5bMkclfJ0hz__whTzKxBg6o8j48c65fV69nx81m9syP9gHVB29lrzTMa0VeXMoNmgNZJa_qJMAzVNi6jvEuZ5_OunLx9aolrDVcVeVroC5gJ-_PSgchaWMZb88N84psfvAe-OlvVbtaYshQuZoTkvDMeTw4PyOee0pmA8adwfPWV_qnvQscNYcsHgcOwSlC7]--></g></svg>