<?xml version="1.0" encoding="us-ascii" standalone="no"?><svg xmlns="http://www.w3.org/2000/svg" xmlns:xlink="http://www.w3.org/1999/xlink" contentStyleType="text/css" height="575px" preserveAspectRatio="none" style="width:1185px;height:575px;background:#FFFFFF;" version="1.1" viewBox="0 0 1185 575" width="1185px" zoomAndPan="magnify"><defs/><g><path d="M19.5,242 L406,242 A12.5,12.5 0 0 1 418.5,254.5 L418.5,287.2656 L7,287.2656 L7,254.5 A12.5,12.5 0 0 1 19.5,242 " fill="#F1F1F1" style="stroke:#F1F1F1;stroke-width:1.0;"/><rect fill="none" height="287.4688" rx="12.5" ry="12.5" style="stroke:#181818;stroke-width:0.5;" width="411.5" x="7" y="242"/><line style="stroke:#181818;stroke-width:0.5;" x1="7" x2="418.5" y1="287.2656" y2="287.2656"/><line style="stroke:#181818;stroke-width:0.5;" x1="7" x2="418.5" y1="268.2969" y2="268.2969"/><text fill="#000000" font-family="sans-serif" font-size="14" lengthAdjust="spacing" textLength="202" x="111.75" y="259.9951">Central knowledge repository</text><text fill="#000000" font-family="sans-serif" font-size="12" lengthAdjust="spacing" textLength="215" x="12" y="279.4355">As GitHub repository and websites</text><g id="ckr.sd"><rect fill="#F1F1F1" height="92.1719" rx="12.5" ry="12.5" style="stroke:#181818;stroke-width:0.5;" width="176" x="19" y="306.2656"/><line style="stroke:#181818;stroke-width:0.5;" x1="19" x2="195" y1="332.5625" y2="332.5625"/><text fill="#000000" font-family="sans-serif" font-size="14" lengthAdjust="spacing" textLength="77" x="68.5" y="324.2607">Study docs</text><text fill="#000000" font-family="sans-serif" font-size="12" lengthAdjust="spacing" textLength="99" x="24" y="348.7012">- Study protocol</text><text fill="#000000" font-family="sans-serif" font-size="12" lengthAdjust="spacing" textLength="156" x="24" y="362.6699">- Data management plan</text><text fill="#000000" font-family="sans-serif" font-size="12" lengthAdjust="spacing" textLength="89" x="24" y="376.6387">- Analysis plan</text><text fill="#000000" font-family="sans-serif" font-size="12" lengthAdjust="spacing" textLength="130" x="24" y="390.6074">- Repository for code</text></g><g id="ckr.od"><rect fill="#F1F1F1" height="106.1406" rx="12.5" ry="12.5" style="stroke:#181818;stroke-width:0.5;" width="191" x="213.5" y="299.2656"/><line style="stroke:#181818;stroke-width:0.5;" x1="213.5" x2="404.5" y1="325.5625" y2="325.5625"/><text fill="#000000" font-family="sans-serif" font-size="14" lengthAdjust="spacing" textLength="114" x="252" y="317.2607">Operations docs</text><text fill="#000000" font-family="sans-serif" font-size="12" lengthAdjust="spacing" textLength="151" x="218.5" y="341.7012">- Documented decisions</text><text fill="#000000" font-family="sans-serif" font-size="12" lengthAdjust="spacing" textLength="146" x="218.5" y="355.6699">- Operating procedures</text><text fill="#000000" font-family="sans-serif" font-size="12" lengthAdjust="spacing" textLength="171" x="218.5" y="369.6387">- Collaboration agreements</text><text fill="#000000" font-family="sans-serif" font-size="12" lengthAdjust="spacing" textLength="159" x="218.5" y="383.6074">- Workflows when working</text><text fill="#000000" font-family="sans-serif" font-size="12" lengthAdjust="spacing" textLength="85" x="226.5" y="397.5762">with registers</text></g><g id="ckr.share"><rect fill="#F1F1F1" height="78.2031" rx="12.5" ry="12.5" style="stroke:#181818;stroke-width:0.5;" width="199" x="108.5" y="441.2656"/><line style="stroke:#181818;stroke-width:0.5;" x1="108.5" x2="307.5" y1="467.5625" y2="467.5625"/><text fill="#000000" font-family="sans-serif" font-size="14" lengthAdjust="spacing" textLength="106" x="155" y="459.2607">Internal sharing</text><text fill="#000000" font-family="sans-serif" font-size="12" lengthAdjust="spacing" textLength="111" x="113.5" y="483.7012">- Lessons learned</text><text fill="#000000" font-family="sans-serif" font-size="12" lengthAdjust="spacing" textLength="158" x="113.5" y="497.6699">- Challenges and barriers</text><text fill="#000000" font-family="sans-serif" font-size="12" lengthAdjust="spacing" textLength="179" x="113.5" y="511.6387">- Benefits and improvements</text></g><!--link sd to share--><!--link od to share--><path d="M467,201 L843,201 A12.5,12.5 0 0 1 855.5,213.5 L855.5,227.2969 L454.5,227.2969 L454.5,213.5 A12.5,12.5 0 0 1 467,201 " fill="#F1F1F1" style="stroke:#F1F1F1;stroke-width:1.0;"/><rect fill="none" height="368.5" rx="12.5" ry="12.5" style="stroke:#181818;stroke-width:0.5;" width="401" x="454.5" y="201"/><line style="stroke:#181818;stroke-width:0.5;" x1="454.5" x2="855.5" y1="227.2969" y2="227.2969"/><text fill="#000000" font-family="sans-serif" font-size="14" lengthAdjust="spacing" textLength="119" x="595.5" y="218.9951">Data engineering</text><g id="de.dc"><rect fill="#F1F1F1" height="66.5625" rx="12.5" ry="12.5" style="stroke:#181818;stroke-width:0.5;" width="149" x="466.5" y="244.7969"/><line style="stroke:#181818;stroke-width:0.5;" x1="466.5" x2="615.5" y1="287.3906" y2="287.3906"/><text fill="#000000" font-family="sans-serif" font-size="14" lengthAdjust="spacing" textLength="106" x="488" y="262.792">Data collection,</text><text fill="#000000" font-family="sans-serif" font-size="14" lengthAdjust="spacing" textLength="75" x="503.5" y="279.0889">generation</text><text fill="#000000" font-family="sans-serif" font-size="12" lengthAdjust="spacing" textLength="129" x="471.5" y="303.5293">- From WP3 and WP4</text></g><g id="de.ri"><rect fill="#F1F1F1" height="78.2031" rx="12.5" ry="12.5" style="stroke:#181818;stroke-width:0.5;" width="213" x="633.5" y="239.2969"/><line style="stroke:#181818;stroke-width:0.5;" x1="633.5" x2="846.5" y1="265.5938" y2="265.5938"/><text fill="#000000" font-family="sans-serif" font-size="14" lengthAdjust="spacing" textLength="134" x="673" y="257.292">Registers ingestion</text><text fill="#000000" font-family="sans-serif" font-size="12" lengthAdjust="spacing" textLength="193" x="638.5" y="281.7324">- Original structure of Denmark</text><text fill="#000000" font-family="sans-serif" font-size="12" lengthAdjust="spacing" textLength="118" x="646.5" y="295.7012">Statistics registers</text><text fill="#000000" font-family="sans-serif" font-size="12" lengthAdjust="spacing" textLength="59" x="638.5" y="309.6699">- For WP2</text></g><g id="de.dep"><rect fill="#F1F1F1" height="92.1719" rx="12.5" ry="12.5" style="stroke:#181818;stroke-width:0.5;" width="231" x="524.5" y="353.2969"/><line style="stroke:#181818;stroke-width:0.5;" x1="524.5" x2="755.5" y1="379.5938" y2="379.5938"/><text fill="#000000" font-family="sans-serif" font-size="14" lengthAdjust="spacing" textLength="185" x="547.5" y="371.292">Data engineering pipelines</text><text fill="#000000" font-family="sans-serif" font-size="12" lengthAdjust="spacing" textLength="182" x="529.5" y="395.7324">- Automated data operations</text><text fill="#000000" font-family="sans-serif" font-size="12" lengthAdjust="spacing" textLength="203" x="537.5" y="409.7012">pipeline (from raw to analyzable)</text><text fill="#000000" font-family="sans-serif" font-size="12" lengthAdjust="spacing" textLength="146" x="529.5" y="423.6699">- Rapid internal sharing</text><text fill="#000000" font-family="sans-serif" font-size="12" lengthAdjust="spacing" textLength="98" x="537.5" y="437.6387">of data outputs</text></g><g id="de.dr"><rect fill="#F1F1F1" height="78.2031" rx="12.5" ry="12.5" style="stroke:#181818;stroke-width:0.5;" width="229" x="525.5" y="481.2969"/><line style="stroke:#181818;stroke-width:0.5;" x1="525.5" x2="754.5" y1="507.5938" y2="507.5938"/><text fill="#000000" font-family="sans-serif" font-size="14" lengthAdjust="spacing" textLength="98" x="591" y="499.292">Data resource</text><text fill="#000000" font-family="sans-serif" font-size="12" lengthAdjust="spacing" textLength="197" x="530.5" y="523.7324">- Adhere to FAIR data principles</text><text fill="#000000" font-family="sans-serif" font-size="12" lengthAdjust="spacing" textLength="209" x="530.5" y="537.7012">- Follow data structure standards</text><text fill="#000000" font-family="sans-serif" font-size="12" lengthAdjust="spacing" textLength="202" x="530.5" y="551.6699">- Use modern data technologies</text></g><!--link dc to dep--><g id="link_dc_dep"><path d="M568.05,311.8169 C577.6,323.2869 588.56,336.4669 599,349.0069 " fill="none" id="dc-to-dep" style="stroke:#181818;stroke-width:1.0;"/><polygon fill="#181818" points="602.22,352.8869,599.5347,343.4112,599.0205,349.0446,593.387,348.5304,602.22,352.8869" style="stroke:#181818;stroke-width:1.0;"/></g><!--link dc to ri--><!--link ri to dep--><g id="link_ri_dep"><path d="M707.81,317.6069 C699.37,327.6469 690.15,338.6169 681.3,349.1469 " fill="none" id="ri-to-dep" style="stroke:#181818;stroke-width:1.0;"/><polygon fill="#181818" points="678.06,353.0069,686.9104,348.686,681.275,349.1775,680.7834,343.542,678.06,353.0069" style="stroke:#181818;stroke-width:1.0;"/></g><!--link dep to dr--><g id="link_dep_dr"><path d="M640,445.6269 C640,455.5769 640,466.0969 640,475.9769 " fill="none" id="dep-to-dr" style="stroke:#181818;stroke-width:1.0;"/><polygon fill="#181818" points="640,481.0769,644,472.0769,640,476.0769,636,472.0769,640,481.0769" style="stroke:#181818;stroke-width:1.0;"/></g><path d="M903,279 L1159,279 A12.5,12.5 0 0 1 1171.5,291.5 L1171.5,305.2969 L890.5,305.2969 L890.5,291.5 A12.5,12.5 0 0 1 903,279 " fill="#F1F1F1" style="stroke:#F1F1F1;stroke-width:1.0;"/><rect fill="none" height="212.5625" rx="12.5" ry="12.5" style="stroke:#181818;stroke-width:0.5;" width="281" x="890.5" y="279"/><line style="stroke:#181818;stroke-width:0.5;" x1="890.5" x2="1171.5" y1="305.2969" y2="305.2969"/><text fill="#000000" font-family="sans-serif" font-size="14" lengthAdjust="spacing" textLength="90" x="986" y="296.9951">Data science</text><g id="ds.rap"><rect fill="#F1F1F1" height="78.2031" rx="12.5" ry="12.5" style="stroke:#181818;stroke-width:0.5;" width="243" x="911" y="317.2969"/><line style="stroke:#181818;stroke-width:0.5;" x1="911" x2="1154" y1="343.5938" y2="343.5938"/><text fill="#000000" font-family="sans-serif" font-size="14" lengthAdjust="spacing" textLength="216" x="924.5" y="335.292">Reproducible analysis pipelines</text><text fill="#000000" font-family="sans-serif" font-size="12" lengthAdjust="spacing" textLength="223" x="916" y="359.7324">- Rapid, automated internal sharing</text><text fill="#000000" font-family="sans-serif" font-size="12" lengthAdjust="spacing" textLength="125" x="924" y="373.7012">of research outputs</text><text fill="#000000" font-family="sans-serif" font-size="12" lengthAdjust="spacing" textLength="202" x="916" y="387.6699">- Running frequent code reviews</text></g><g id="ds.pkg"><rect fill="#F1F1F1" height="50.2656" rx="12.5" ry="12.5" style="stroke:#181818;stroke-width:0.5;" width="260" x="902.5" y="431.2969"/><line style="stroke:#181818;stroke-width:0.5;" x1="902.5" x2="1162.5" y1="457.5938" y2="457.5938"/><text fill="#000000" font-family="sans-serif" font-size="14" lengthAdjust="spacing" textLength="206" x="929.5" y="449.292">Reuse and packaging of code</text><text fill="#000000" font-family="sans-serif" font-size="12" lengthAdjust="spacing" textLength="240" x="907.5" y="473.7324">- Convert WP2 prediction into software</text></g><!--link rap to pkg--><g id="link_rap_pkg"><path d="M1032.5,395.4669 C1032.5,405.6269 1032.5,416.4369 1032.5,426.0369 " fill="none" id="rap-to-pkg" style="stroke:#181818;stroke-width:1.0;"/><polygon fill="#181818" points="1032.5,431.2269,1036.5,422.2269,1032.5,426.2269,1028.5,422.2269,1032.5,431.2269" style="stroke:#181818;stroke-width:1.0;"/></g><g id="pm"><rect fill="#F1F1F1" height="120.1094" rx="12.5" ry="12.5" style="stroke:#181818;stroke-width:0.5;" width="239" x="590.5" y="14"/><line style="stroke:#181818;stroke-width:0.5;" x1="590.5" x2="829.5" y1="40.2969" y2="40.2969"/><text fill="#000000" font-family="sans-serif" font-size="14" lengthAdjust="spacing" textLength="144" x="638" y="31.9951">Project management</text><text fill="#000000" font-family="sans-serif" font-size="12" lengthAdjust="spacing" textLength="180" x="595.5" y="56.4355">- Central task tracking board</text><text fill="#000000" font-family="sans-serif" font-size="12" lengthAdjust="spacing" textLength="138" x="603.5" y="70.4043">(Kanban-style boards)</text><text fill="#000000" font-family="sans-serif" font-size="12" lengthAdjust="spacing" textLength="165" x="595.5" y="84.373">- Iterative and incremental</text><text fill="#000000" font-family="sans-serif" font-size="12" lengthAdjust="spacing" textLength="211" x="603.5" y="98.3418">methods (software agile-inspired)</text><text fill="#000000" font-family="sans-serif" font-size="12" lengthAdjust="spacing" textLength="206" x="595.5" y="112.3105">- Central communication channel</text><text fill="#000000" font-family="sans-serif" font-size="12" lengthAdjust="spacing" textLength="139" x="603.5" y="126.2793">(Slack/Teams/Discord)</text></g><g id="edu"><rect fill="#F1F1F1" height="134.0781" rx="12.5" ry="12.5" style="stroke:#181818;stroke-width:0.5;" width="221" x="864.5" y="7"/><line style="stroke:#181818;stroke-width:0.5;" x1="864.5" x2="1085.5" y1="33.2969" y2="33.2969"/><text fill="#000000" font-family="sans-serif" font-size="14" lengthAdjust="spacing" textLength="167" x="891.5" y="24.9951">Education and upskilling</text><text fill="#000000" font-family="sans-serif" font-size="12" lengthAdjust="spacing" textLength="151" x="869.5" y="49.4355">- Basic practices in data</text><text fill="#000000" font-family="sans-serif" font-size="12" lengthAdjust="spacing" textLength="75" x="877.5" y="63.4043">engineering</text><text fill="#000000" font-family="sans-serif" font-size="12" lengthAdjust="spacing" textLength="190" x="869.5" y="77.373">- Reproducible research within</text><text fill="#000000" font-family="sans-serif" font-size="12" lengthAdjust="spacing" textLength="193" x="877.5" y="91.3418">server environments (Denmark</text><text fill="#000000" font-family="sans-serif" font-size="12" lengthAdjust="spacing" textLength="63" x="877.5" y="105.3105">Statistics)</text><text fill="#000000" font-family="sans-serif" font-size="12" lengthAdjust="spacing" textLength="192" x="869.5" y="119.2793">- Iterative project development</text><text fill="#000000" font-family="sans-serif" font-size="12" lengthAdjust="spacing" textLength="58" x="877.5" y="133.248">practices</text></g><g id="collab"><rect fill="#F1F1F1" height="92.1719" rx="12.5" ry="12.5" style="stroke:#181818;stroke-width:0.5;" width="238" x="317" y="28"/><line style="stroke:#181818;stroke-width:0.5;" x1="317" x2="555" y1="54.2969" y2="54.2969"/><text fill="#000000" font-family="sans-serif" font-size="14" lengthAdjust="spacing" textLength="98" x="387" y="45.9951">Collaborations</text><text fill="#000000" font-family="sans-serif" font-size="12" lengthAdjust="spacing" textLength="195" x="322" y="70.4355">- NNF-funded Seedcase Project</text><text fill="#000000" font-family="sans-serif" font-size="12" lengthAdjust="spacing" textLength="144" x="330" y="84.4043">(software and training)</text><text fill="#000000" font-family="sans-serif" font-size="12" lengthAdjust="spacing" textLength="155" x="322" y="98.373">- SDCA training expertise</text><text fill="#000000" font-family="sans-serif" font-size="12" lengthAdjust="spacing" textLength="210" x="330" y="112.3418">(e.g. DDEA R courses instructors)</text></g><!--link ckr to de--><!--link de to ds--><g id="link_de_ds"><path d="M855.85,385.5 C865.66,385.5 875.47,385.5 885.27,385.5 " fill="none" id="de-to-ds" style="stroke:#181818;stroke-width:1.0;"/><polygon fill="#181818" points="890.4,385.5,881.4,381.5,885.4,385.5,881.4,389.5,890.4,385.5" style="stroke:#181818;stroke-width:1.0;"/></g><!--link pm to de--><g id="link_pm_de"><path d="M699.46,134.31 C696.21,152.58 692.45,173.78 688.51,195.94 " fill="none" id="pm-to-de" style="stroke:#181818;stroke-width:1.0;"/><polygon fill="#181818" points="687.61,200.98,693.1388,192.8294,688.4944,196.0588,685.265,191.4144,687.61,200.98" style="stroke:#181818;stroke-width:1.0;"/></g><!--link pm to ds--><g id="link_pm_ds"><path d="M793.07,134.08 C819.54,154.24 848.35,177.62 873,201 C896.89,223.66 920.94,249.62 942.83,274.75 " fill="none" id="pm-to-ds" style="stroke:#181818;stroke-width:1.0;"/><polygon fill="#181818" points="946.33,278.78,943.4543,269.3603,943.0537,275.003,937.4111,274.6024,946.33,278.78" style="stroke:#181818;stroke-width:1.0;"/></g><!--link collab to pm--><g id="link_collab_pm"><path d="M555.07,74 C565.12,74 575.17,74 585.22,74 " fill="none" id="collab-to-pm" style="stroke:#181818;stroke-width:1.0;"/><polygon fill="#181818" points="590.48,74,581.48,70,585.48,74,581.48,78,590.48,74" style="stroke:#181818;stroke-width:1.0;"/></g><!--link collab to ckr--><g id="link_collab_ckr"><path d="M403.57,120 C381.05,151.27 349.65,194.85 318.83,237.62 " fill="none" id="collab-to-ckr" style="stroke:#181818;stroke-width:1.0;"/><polygon fill="#181818" points="315.85,241.76,324.3493,236.7839,318.767,237.6991,317.8519,232.1167,315.85,241.76" style="stroke:#181818;stroke-width:1.0;"/></g><!--link collab to de--><g id="link_collab_de"><path d="M467.84,120 C482.88,141.26 501.95,168.2 522.12,196.71 " fill="none" id="collab-to-de" style="stroke:#181818;stroke-width:1.0;"/><polygon fill="#181818" points="525.11,200.93,523.1851,191.2711,522.2255,196.846,516.6506,195.8863,525.11,200.93" style="stroke:#181818;stroke-width:1.0;"/></g><!--reverse link pm to edu--><g id="link_pm_edu"><path d="M834.7,74 C844.54,74 854.38,74 864.22,74 " fill="none" id="pm-backto-edu" style="stroke:#181818;stroke-width:1.0;"/><polygon fill="#181818" points="829.56,74,838.56,78,834.56,74,838.56,70,829.56,74" style="stroke:#181818;stroke-width:1.0;"/></g><!--link edu to de--><g id="link_edu_de"><path d="M906.74,141.02 C889.05,158.13 869.08,177.44 848.34,197.5 " fill="none" id="edu-to-de" style="stroke:#181818;stroke-width:1.0;"/><polygon fill="#181818" points="844.73,200.99,853.9784,197.6038,848.3223,197.5122,848.4139,191.8561,844.73,200.99" style="stroke:#181818;stroke-width:1.0;"/></g><!--link edu to ds--><g id="link_edu_ds"><path d="M986.94,141.02 C993.92,179.56 1002.9,229.21 1010.93,273.6 " fill="none" id="edu-to-ds" style="stroke:#181818;stroke-width:1.0;"/><polygon fill="#181818" points="1011.86,278.71,1014.2002,269.1432,1010.9731,273.7893,1006.3271,270.5622,1011.86,278.71" style="stroke:#181818;stroke-width:1.0;"/></g><!--SRC=[TLLDRnit4BtlhnZaP0DH0hGzzL30jUBKQ94QSWiVcXueSYInuf9RaYlL3VBV-uRSBxd9mJ8_PjwyUJESJLbbfbUtx7DKZeu-d1sRFLFaBYIRGtn-HIgHFaRwH0sLnVTqa-YzpJ_rsuKTAM_ep5liE8bfgjYFkJVFP89E1IaPkJ80ML6zwcB8GGStdwzLLjGgh_RSWXbrJldvziOhzvniUd6ycPdiGYGT33SpYryxZYhRuDDC9GYLC8GCkfTORCYmjaaivzl1s- -5h6RJHrxStWRdr3PKV5Bxo8Nsmk8fnEFEXNEYyu4zdR45s4TFTBRv017tDcMEuZ5JlWURY5mf7LI4UPKFQnOR-L-mV-6K92t7Ades5tUt1-KS-pqA8jNPgXXj3JFR_CYUTpPN2ziYmTD0_tFJ35HAGO1ZFVD4nJ1zcjaM4rJHiHOPNdz4L3zeNiqrZ8qkCUzYQEdfuTiIy-dXkukyDwCQP8Nv110jRAAj1OaMP4IR77kTKGyAErgpRrKyYgwFm0AArUb2tS7z3WtozF1DyuB-8aFgRCSEkpJasWbxxce7zZcqglIAk8MfjoJow4XNEyaogZFbW4JHjF-ghUFh1T16THQYloYqe22RYjtdhaSjNZ15_uK-Qgxaea36IiqS668WujtD_QPYT03LjdEbPmUxErGgdElzh252UAEYMHZ-dfXQlANegt5cVV31XRtb_tL8qfRzI2ejkmEFCmRJQmi1gXRb0Lze79LeZDzPcjUa9gc_eXAKGEFhmwJK0gBtNagvY_ntBtD4PW8SJfRFIqKtt2SkhTWfVLHxyG6oM1TYtN4FO_mEhzsVE6Rf7oZBnfP-5tg1KjZbippGMPY76Fx2arYCiuhPDbrRyORPcrKw4bPQHWDj0yeWALxzhFnM-LNApv2k7AVhqVS-byuxLVQeSYmHb1FFblCXe0nN8okC9kjuPNtgB8XVlsIWGzlstkewn_H1USy5wUhHWTRRtrYrwUtQ9XqYlCSCtw6km-W3YRvBH-lSE2GmAnlyrKcZajNGJ44npVAyIqj9XCNBcymlUcOgimnCwyKdSKGXu7goCVWoikZgYoFWUiAS1Uk6kXW-iGkTk9VNEx9hflmkndjjLLsEclgl07_uSBVQzTwWKH-PZLRegA7qHS6v1j08QblfpEibmkFwzcQw8Vu7GmNqkNZpc_qRMg_VtT06iVkOYdhrtOQ8_1hvBg_-E5XZsF_v0x9gqEehB908Ff3J5Oxg9oHywL0wOhKgxkCgDPZPzQmhopa81ZBcwNI7cLRMiHdJmWvzFcwm0ylbLhxGKfcLurqkjcLNRwObCf0NBMjvYVy1]--></g></svg>