<?xml version="1.0" encoding="us-ascii" standalone="no"?><svg xmlns="http://www.w3.org/2000/svg" xmlns:xlink="http://www.w3.org/1999/xlink" contentStyleType="text/css" height="592px" preserveAspectRatio="none" style="width:984px;height:592px;background:#FFFFFF;" version="1.1" viewBox="0 0 984 592" width="984px" zoomAndPan="magnify"><defs/><g><!--cluster mgt--><g id="cluster_mgt"><path d="M252.5,7 L670.5,7 A12.5,12.5 0 0 1 683,19.5 L683,28.2969 L240,28.2969 L240,19.5 A12.5,12.5 0 0 1 252.5,7 " fill="#F1F1F1" style="stroke:#F1F1F1;stroke-width:1.0;"/><rect fill="none" height="175" rx="12.5" ry="12.5" style="stroke:#181818;stroke-width:0.5;" width="443" x="240" y="7"/><line style="stroke:#181818;stroke-width:0.5;" x1="240" x2="683" y1="28.2969" y2="28.2969"/><text fill="#000000" font-family="sans-serif" font-size="14" lengthAdjust="spacing" textLength="91" x="416" y="23.9951">Management</text></g><!--cluster wps--><g id="cluster_wps"><path d="M19.5,222 L904.5,222 A12.5,12.5 0 0 1 917,234.5 L917,243.2969 L7,243.2969 L7,234.5 A12.5,12.5 0 0 1 19.5,222 " fill="#F1F1F1" style="stroke:#F1F1F1;stroke-width:1.0;"/><rect fill="none" height="189" rx="12.5" ry="12.5" style="stroke:#181818;stroke-width:0.5;" width="910" x="7" y="222"/><line style="stroke:#181818;stroke-width:0.5;" x1="7" x2="917" y1="243.2969" y2="243.2969"/><text fill="#000000" font-family="sans-serif" font-size="14" lengthAdjust="spacing" textLength="97" x="413.5" y="238.9951">Individual WPs</text></g><!--cluster collabs--><g id="cluster_collabs"><path d="M484.5,443 L691.5,443 A12.5,12.5 0 0 1 704,455.5 L704,464.2969 L472,464.2969 L472,455.5 A12.5,12.5 0 0 1 484.5,443 " fill="#F1F1F1" style="stroke:#F1F1F1;stroke-width:1.0;"/><rect fill="none" height="143" rx="12.5" ry="12.5" style="stroke:#181818;stroke-width:0.5;" width="232" x="472" y="443"/><line style="stroke:#181818;stroke-width:0.5;" x1="472" x2="704" y1="464.2969" y2="464.2969"/><text fill="#000000" font-family="sans-serif" font-size="14" lengthAdjust="spacing" textLength="155" x="510.5" y="459.9951">External collaborations</text></g><g id="mgt.mc"><rect fill="#F1F1F1" height="94.5" rx="12.5" ry="12.5" style="stroke:#181818;stroke-width:0.5;" width="145" x="513.5" y="56.5"/><line style="stroke:#181818;stroke-width:0.5;" x1="513.5" x2="658.5" y1="99.0938" y2="99.0938"/><text fill="#000000" font-family="sans-serif" font-size="14" lengthAdjust="spacing" textLength="91" x="540.5" y="74.4951">Management</text><text fill="#000000" font-family="sans-serif" font-size="14" lengthAdjust="spacing" textLength="119" x="526.5" y="90.792">committee (WP1)</text><text fill="#000000" font-family="sans-serif" font-size="12" lengthAdjust="spacing" textLength="124" x="518.5" y="115.2324">- PI: Daniel Witte (A)</text><text fill="#000000" font-family="sans-serif" font-size="12" lengthAdjust="spacing" textLength="125" x="518.5" y="129.2012">- People: 7 (one rep</text><text fill="#000000" font-family="sans-serif" font-size="12" lengthAdjust="spacing" textLength="113" x="526.5" y="143.1699">from each center)</text></g><g id="mgt.roc"><rect fill="#F1F1F1" height="108.4688" rx="12.5" ry="12.5" style="stroke:#181818;stroke-width:0.5;" width="195" x="283.5" y="50"/><line style="stroke:#181818;stroke-width:0.5;" x1="283.5" x2="478.5" y1="92.5938" y2="92.5938"/><text fill="#000000" font-family="sans-serif" font-size="14" lengthAdjust="spacing" textLength="96" x="333" y="67.9951">Research ops</text><text fill="#000000" font-family="sans-serif" font-size="14" lengthAdjust="spacing" textLength="119" x="321.5" y="84.292">committee (WP1)</text><text fill="#000000" font-family="sans-serif" font-size="12" lengthAdjust="spacing" textLength="175" x="288.5" y="108.7324">- Lead: Luke W. Johnston (A)</text><text fill="#000000" font-family="sans-serif" font-size="12" lengthAdjust="spacing" textLength="147" x="288.5" y="122.7012">- People: 8 (1 tech lead</text><text fill="#000000" font-family="sans-serif" font-size="12" lengthAdjust="spacing" textLength="112" x="296.5" y="136.6699">from each center,</text><text fill="#000000" font-family="sans-serif" font-size="12" lengthAdjust="spacing" textLength="90" x="296.5" y="150.6387">1 coordinator)</text></g><g id="wps.wp1"><rect fill="#F1F1F1" height="108.4688" rx="12.5" ry="12.5" style="stroke:#181818;stroke-width:0.5;" width="197" x="50.5" y="272"/><line style="stroke:#181818;stroke-width:0.5;" x1="50.5" x2="247.5" y1="314.5938" y2="314.5938"/><text fill="#000000" font-family="sans-serif" font-size="14" lengthAdjust="spacing" textLength="161" x="68.5" y="289.9951">WP1: Management and</text><text fill="#000000" font-family="sans-serif" font-size="14" lengthAdjust="spacing" textLength="146" x="76" y="306.292">collaboration outputs</text><text fill="#000000" font-family="sans-serif" font-size="12" lengthAdjust="spacing" textLength="175" x="55.5" y="330.7324">- Lead: Luke W. Johnston (A)</text><text fill="#000000" font-family="sans-serif" font-size="12" lengthAdjust="spacing" textLength="177" x="55.5" y="344.7012">- People: 4 (3 part-time tech</text><text fill="#000000" font-family="sans-serif" font-size="12" lengthAdjust="spacing" textLength="132" x="63.5" y="358.6699">leads, 1 coordinator)</text><text fill="#000000" font-family="sans-serif" font-size="12" lengthAdjust="spacing" textLength="79" x="55.5" y="372.6387">- Centers: All</text></g><g id="wps.wp2"><rect fill="#F1F1F1" height="108.4688" rx="12.5" ry="12.5" style="stroke:#181818;stroke-width:0.5;" width="180" x="283" y="272"/><line style="stroke:#181818;stroke-width:0.5;" x1="283" x2="463" y1="314.5938" y2="314.5938"/><text fill="#000000" font-family="sans-serif" font-size="14" lengthAdjust="spacing" textLength="69" x="338.5" y="289.9951">WP2: Risk</text><text fill="#000000" font-family="sans-serif" font-size="14" lengthAdjust="spacing" textLength="69" x="338.5" y="306.292">prediction</text><text fill="#000000" font-family="sans-serif" font-size="12" lengthAdjust="spacing" textLength="147" x="288" y="330.7324">- Lead: Stine Byberg (C)</text><text fill="#000000" font-family="sans-serif" font-size="12" lengthAdjust="spacing" textLength="160" x="288" y="344.7012">- People: 3 (postdoc, PhD</text><text fill="#000000" font-family="sans-serif" font-size="12" lengthAdjust="spacing" textLength="113" x="296" y="358.6699">student, and TAP)</text><text fill="#000000" font-family="sans-serif" font-size="12" lengthAdjust="spacing" textLength="79" x="288" y="372.6387">- Centers: All</text></g><g id="wps.wp3"><rect fill="#F1F1F1" height="92.1719" rx="12.5" ry="12.5" style="stroke:#181818;stroke-width:0.5;" width="180" x="498" y="280"/><line style="stroke:#181818;stroke-width:0.5;" x1="498" x2="678" y1="306.2969" y2="306.2969"/><text fill="#000000" font-family="sans-serif" font-size="14" lengthAdjust="spacing" textLength="138" x="519" y="297.9951">WP3: Heterogeneity</text><text fill="#000000" font-family="sans-serif" font-size="12" lengthAdjust="spacing" textLength="129" x="503" y="322.4355">- Lead: Claus Juhl (O)</text><text fill="#000000" font-family="sans-serif" font-size="12" lengthAdjust="spacing" textLength="160" x="503" y="336.4043">- People: 3 (postdoc, PhD</text><text fill="#000000" font-family="sans-serif" font-size="12" lengthAdjust="spacing" textLength="113" x="511" y="350.373">student, and TAP)</text><text fill="#000000" font-family="sans-serif" font-size="12" lengthAdjust="spacing" textLength="107" x="503" y="364.3418">- Centers: O, A, G</text></g><g id="wps.wp4"><rect fill="#F1F1F1" height="122.4375" rx="12.5" ry="12.5" style="stroke:#181818;stroke-width:0.5;" width="180" x="713" y="265"/><line style="stroke:#181818;stroke-width:0.5;" x1="713" x2="893" y1="307.5938" y2="307.5938"/><text fill="#000000" font-family="sans-serif" font-size="14" lengthAdjust="spacing" textLength="122" x="742" y="282.9951">WP4: Intervention</text><text fill="#000000" font-family="sans-serif" font-size="14" lengthAdjust="spacing" textLength="91" x="757.5" y="299.292">development</text><text fill="#000000" font-family="sans-serif" font-size="12" lengthAdjust="spacing" textLength="122" x="718" y="323.7324">- Lead: Anne-Louise</text><text fill="#000000" font-family="sans-serif" font-size="12" lengthAdjust="spacing" textLength="96" x="726" y="337.7012">Bjerregaard (S)</text><text fill="#000000" font-family="sans-serif" font-size="12" lengthAdjust="spacing" textLength="160" x="718" y="351.6699">- People: 3 (postdoc, PhD</text><text fill="#000000" font-family="sans-serif" font-size="12" lengthAdjust="spacing" textLength="113" x="726" y="365.6387">student, and TAP)</text><text fill="#000000" font-family="sans-serif" font-size="12" lengthAdjust="spacing" textLength="139" x="718" y="379.6074">- Centers: N, A, O, C, S</text></g><g id="collabs.seedcase"><rect fill="#F1F1F1" height="92.1719" rx="12.5" ry="12.5" style="stroke:#181818;stroke-width:0.5;" width="200" x="488" y="478"/><line style="stroke:#181818;stroke-width:0.5;" x1="488" x2="688" y1="504.2969" y2="504.2969"/><text fill="#000000" font-family="sans-serif" font-size="14" lengthAdjust="spacing" textLength="121" x="527.5" y="495.9951">Seedcase Project</text><text fill="#000000" font-family="sans-serif" font-size="12" lengthAdjust="spacing" textLength="114" x="493" y="520.4355">- NNF-funded data</text><text fill="#000000" font-family="sans-serif" font-size="12" lengthAdjust="spacing" textLength="172" x="501" y="534.4043">infrastructure software and</text><text fill="#000000" font-family="sans-serif" font-size="12" lengthAdjust="spacing" textLength="96" x="501" y="548.373">training project</text><text fill="#000000" font-family="sans-serif" font-size="12" lengthAdjust="spacing" textLength="66" x="493" y="562.3418">- Center: A</text></g><g id="external"><rect fill="#F1F1F1" height="52.5938" rx="12.5" ry="12.5" style="stroke:#181818;stroke-width:0.5;" width="145" x="67.5" y="77.5"/><line style="stroke:#181818;stroke-width:0.5;" x1="67.5" x2="212.5" y1="120.0938" y2="120.0938"/><text fill="#000000" font-family="sans-serif" font-size="14" lengthAdjust="spacing" textLength="125" x="77.5" y="95.4951">External academic</text><text fill="#000000" font-family="sans-serif" font-size="14" lengthAdjust="spacing" textLength="88" x="96" y="111.792">review board</text></g><!--reverse link external to mgt--><g id="link_external_mgt"><path d="M217.74,104 C222.69,104 227.64,104 232.5913,104 C233.8291,104 235.067,104 236.3049,104 C236.9239,104 237.543,104 238.162,104 C238.4715,104 238.7811,104 239.0906,104 C239.2454,104 239.4001,104 239.5549,104 C239.6323,104 239.7097,104 239.7871,104 C239.8258,104 239.8644,104 239.9031,104 " fill="none" id="external-backto-mgt" style="stroke:#181818;stroke-width:1.0;stroke-dasharray:7.0,7.0;"/><polygon fill="#181818" points="212.56,104,221.56,108,217.56,104,221.56,100,212.56,104" style="stroke:#181818;stroke-width:1.0;"/></g><!--link roc to mc--><g id="link_roc_mc"><path d="M478.7,104 C488.57,104 498.45,104 508.32,104 " fill="none" id="roc-to-mc" style="stroke:#181818;stroke-width:1.0;"/><polygon fill="#181818" points="513.49,104,504.49,100,508.49,104,504.49,108,513.49,104" style="stroke:#181818;stroke-width:1.0;"/></g><!--link wp1 to wp2--><!--link wp2 to wp3--><!--link wp3 to wp4--><!--reverse link mgt to wps--><g id="link_mgt_wps"><path d="M242.1294,182.1564 C241.9858,182.4414 241.8401,182.7251 241.6922,183.0074 C241.1006,184.1369 240.4743,185.2454 239.8117,186.33 C237.1609,190.6681 233.9275,194.6225 230,198 C213.47,212.21 50.29,191.52 34,206 C29.0738,210.3788 25.0722,215.4816 21.8423,221.064 C21.7414,221.2384 21.6412,221.4133 21.5418,221.5887 " fill="none" id="mgt-backto-wps" style="stroke:#181818;stroke-width:1.0;"/><polygon fill="#181818" points="242.1294,182.1564,234.5072,188.3936,239.8794,186.6216,241.6515,191.9937,242.1294,182.1564" style="stroke:#181818;stroke-width:1.0;"/></g><!--reverse link roc to seedcase--><g id="link_roc_seedcase"><path d="M435.86,161.52 C453.55,176.18 474.25,190.07 496,198 C517.56,205.86 892.93,189.62 909,206 C977.78,276.12 967.67,348.22 909,427 C882.34,462.81 772.24,490.19 688.35,506.37 " fill="none" id="roc-backto-seedcase" style="stroke:#181818;stroke-width:1.0;"/><polygon fill="#181818" points="431.9,158.19,436.2209,167.0404,435.7294,161.405,441.3648,160.9134,431.9,158.19" style="stroke:#181818;stroke-width:1.0;"/></g><!--reverse link wp1 to seedcase--><g id="link_wp1_seedcase"><path d="M205.76,383.77 C223.85,399.5 244.73,415.42 266,427 C335.55,464.86 421.88,489.56 487.64,504.41 " fill="none" id="wp1-backto-seedcase" style="stroke:#181818;stroke-width:1.0;"/><polygon fill="#181818" points="201.7,380.21,205.8224,389.1546,205.4567,383.5096,211.1017,383.1439,201.7,380.21" style="stroke:#181818;stroke-width:1.0;"/></g><!--reverse link wp3 to seedcase--><g id="link_wp3_seedcase"><path d="M588,377.74 C588,408.69 588,447.91 588,477.79 " fill="none" id="wp3-backto-seedcase" style="stroke:#181818;stroke-width:1.0;"/><polygon fill="#181818" points="588,372.46,584,381.46,588,377.46,592,381.46,588,372.46" style="stroke:#181818;stroke-width:1.0;"/></g><!--SRC=[dPHDRzim38Rl_XL4JmvW3qWTO8CF1T9q7ocoDcW6vD3ie4gCezQM38bELWpxxvFyaTffCGprnGRvadf8KxJ42E7iyoz2erWEZ3E1XUGRPN0lyG0FcXbn1im2jfeWi4tGTwPOXWKgglr5Hl0x0FUyycyKrqKXYH0XN2_7eoQ0r-g2fn33Sfx25LCISrXx8OJJKT-DkimnXOyGQeLWiDmeWAtH1I3ZE-3k53IZe7_-7LfanZbrQTycCBf1S6_mfooGYHGMrHF2-WDSwvsofDKHfPDrC9yW70EXEo5tWMy1HTuu1gwr4L8nqWxnpx61SoNaNehAzNszj3NHeRJ39ZhM55uw2Km9NqkUimTj64c7foigA-hYntMqU_zFHPsigsW2OG8bCnIJBB2kpLVWoxFHQI7z1BEwN9l2DC-38Vzv2dVIFcrKQL18xf5RrFCsnNaFTKNI_T_BvmSq6OIpqK3IOIOGbjgIq3o2vUxA8rggX6E8V8FWntGv3Fm7NfB2DtHEdQ52ISyjMzB69pssMSug2zVLBeVmTZGGl8Ci6PBTHZ2DuEi9tII5kHVidSmrRgC4xZ7NvV7M7Sf9cs_I8vqgXV52LzAYHxXyH6CmO-ugGxWQ3GBUGJuPaj_Kv8v_5i6gDzx7fJ8OrsPE6rCpwwryXIWuimXBen-HD-NPrkXbdTyVVdFp9TvMhXi212FcQQNQ6cR9L9mgWs3rbWxCVTGt1e0Caqgg3Cec_Md6fXpNEbz1u9TPdEEMxWMpEnG_Brxsdry3yOLVNu4V__X-9uNhavFuaVOZDp0bWV_N0zF4Hrg8gzBdoIWuaZGclvTEJFvYlp8bmLy0]--></g></svg>